<svg width="22" height="22" viewBox="0 0 22 22" fill="none" xmlns="http://www.w3.org/2000/svg">
<circle cx="11.0011" cy="11.0002" r="5.29412" fill="#503C3B"/>
<path d="M12 1C12 0.447715 11.5523 0 11 0C10.4477 0 10 0.447715 10 1H12ZM10 1V4.52941H12V1H10Z" fill="#503C3B"/>
<path d="M10 21C10 21.5523 10.4477 22 11 22C11.5523 22 12 21.5523 12 21H10ZM12 21V17.4706H10V21H12Z" fill="#503C3B"/>
<path d="M16.6675 18.6408C17.0226 19.0639 17.6533 19.1191 18.0764 18.7641C18.4995 18.4091 18.5546 17.7783 18.1996 17.3553L16.6675 18.6408ZM18.1996 17.3553L15.931 14.6516L14.3989 15.9371L16.6675 18.6408L18.1996 17.3553Z" fill="#503C3B"/>
<path d="M3.80427 17.5916C3.44927 18.0147 3.50445 18.6454 3.92752 19.0004C4.3506 19.3554 4.98136 19.3002 5.33636 18.8772L3.80427 17.5916ZM5.33636 18.8772L7.60502 16.1735L6.07293 14.8879L3.80427 17.5916L5.33636 18.8772Z" fill="#503C3B"/>
<path d="M18.1996 4.17208C18.5546 3.74901 18.4995 3.11825 18.0764 2.76325C17.6533 2.40825 17.0226 2.46343 16.6675 2.88651L18.1996 4.17208ZM16.6675 2.88651L14.3989 5.5902L15.931 6.87577L18.1996 4.17208L16.6675 2.88651Z" fill="#503C3B"/>
<path d="M5.33636 3.12333C4.98136 2.70025 4.3506 2.64507 3.92752 3.00007C3.50445 3.35507 3.44927 3.98583 3.80427 4.4089L5.33636 3.12333ZM3.80427 4.4089L6.07293 7.11259L7.60502 5.82701L5.33636 3.12333L3.80427 4.4089Z" fill="#503C3B"/>
<path d="M1 10C0.447715 10 0 10.4477 0 11C0 11.5523 0.447715 12 1 12L1 10ZM1 12H4.52941V10H1L1 12Z" fill="#503C3B"/>
<path d="M21 12C21.5523 12 22 11.5523 22 11C22 10.4477 21.5523 10 21 10V12ZM21 10H17.4706V12H21V10Z" fill="#503C3B"/>
</svg>
